<svg fill="#008b8b" xmlns="http://www.w3.org/2000/svg" xmlns:xlink="http://www.w3.org/1999/xlink" version="1.1" x="0px" y="0px" viewBox="0 0 90 112.5" enable-background="new 0 0 90 90" xml:space="preserve"><path d="M50.325,35.745c4.385,0,8.703,1.914,12.391,5.44c0.975,0.851,1.041,2.348,0.15,3.281c-0.895,0.939-2.391,0.939-3.281,0.005  c-3.01-2.884-6.172-4.189-9.26-4.189c-3.084,0-6.24,1.305-9.25,4.189c-0.432,0.428-1.025,0.662-1.635,0.646  c-2.031-0.052-2.98-2.545-1.49-3.933C41.632,37.658,45.944,35.745,50.325,35.745z M59.772,26.792c1.813,0,3.287,1.477,3.287,3.292  c0,1.816-1.475,3.287-3.287,3.287s-3.281-1.471-3.281-3.287C56.491,28.269,57.96,26.792,59.772,26.792z M40.888,26.792  c1.813,0,3.281,1.477,3.281,3.292c0,1.816-1.469,3.287-3.281,3.287c-1.818,0-3.287-1.471-3.287-3.287  C37.601,28.269,39.069,26.792,40.888,26.792z M10.497,5.274c-4.422,0.125-5.125,6.797-0.844,7.961l5.584,1.972l6.568,34.257  c0.785,4.1,2.088,7.809,3.904,11.001c2.672,4.701,7.313,8.17,13.037,8.17h28.428c5.129,0.093,5.129-8.118,0-8.024H38.747  c-4.047-0.516-5.725-2.555-7.209-5.545H69.06c3.443,0,5.365-3.057,6.213-6.593l8.209-27.93c0.438-4.591-1.994-5.498-6.25-5.498  l-53.906,0.041l-1.447-4.429c-0.391-1.319-1.391-2.337-2.646-2.691L10.497,5.274z"/><path d="M64.925,72.724c-3.355,0-6.078,2.729-6.078,6.088c0,3.364,2.723,6.092,6.078,6.092c3.359,0,6.082-2.728,6.082-6.092  C71.007,75.453,68.284,72.724,64.925,72.724z M40.685,72.724c-3.359,0-6.084,2.729-6.084,6.088c0,3.364,2.725,6.092,6.084,6.092  s6.078-2.728,6.078-6.092C46.763,75.453,44.044,72.724,40.685,72.724z"/></svg>